HIERARCHY
ROOT Hips
{
	OFFSET 0.00000 0.00000 0.00000
	CHANNELS 6 Xposition Yposition Zposition Yrotation Zrotation Xrotation 
	JOINT Lumbar
	{
		OFFSET 0 0 0
		CHANNELS 3 Zrotation Xrotation Yrotation
		JOINT Neck
		{
			OFFSET 0.00 0.2701 0.00
			CHANNELS 3 Zrotation Xrotation Yrotation
			End Site
			{
				OFFSET 0.00 0.1379 0.00
			}
		}
		JOINT RightShoulder
		{
			OFFSET 0.0119 0.2289 0.1181
			CHANNELS 3 Zrotation Xrotation Yrotation
			JOINT RightElbow
			{
				OFFSET 0.00 -0.1475 0.00
				CHANNELS 2 Zrotation Yrotation
				JOINT RightWrist
				{
					OFFSET 0.00 -0.1605 0.00
					CHANNELS 2 Zrotation Xrotation
					End Site
					{
						OFFSET 0.0040 -0.1068 0.0006
					}
				}
			}
		}
		JOINT LeftShoulder
		{
			OFFSET 0.0119 0.2289 -0.1181
			CHANNELS 3 Zrotation Xrotation Yrotation
			JOINT LeftElbow
			{
				OFFSET 0.00 -0.1475 0.00
				CHANNELS 2 Zrotation Yrotation
				JOINT LeftWrist
				{
					OFFSET 0.00 -0.1605 0.00
					CHANNELS 2 Zrotation Xrotation
					End Site
					{
						OFFSET 0.0040 -0.1068 -0.0006
					}
				}
			}
		}
	}
	JOINT RightHip
	{
		OFFSET 0.0316 -0.0424 0.0458
		CHANNELS 3 Zrotation Xrotation Yrotation
		JOINT RightKnee
		{
			OFFSET 0.00 -0.2438 0.00
			CHANNELS 1 Zrotation
			JOINT RightAnkle
			{
				OFFSET 0.00 -0.2449 0.00
				CHANNELS 3 Zrotation Xrotation Yrotation
				End Site
				{
					OFFSET 0.1237 -0.0542 0.0051
				}
			}
		}
	}
	JOINT LeftHip
	{
		OFFSET 0.0316 -0.0424 -0.0458
		CHANNELS 3 Zrotation Xrotation Yrotation
		JOINT LeftKnee
		{
			OFFSET 0.00 -0.2438 0.00
			CHANNELS 1 Zrotation
			JOINT LeftAnkle
			{
				OFFSET 0.00 -0.2449 0.00
				CHANNELS 3 Zrotation Xrotation Yrotation
				End Site
				{
					OFFSET 0.1237 -0.0542 -0.0051
				}
			}
		}
	}
}
MOTION
Frames: 33
Frame Time: 0.02
0.06509 -0.56773 0.00981 -189.14936 6.20088 -1.04142 -18.15648 8.93286 -3.42303 4.29084 -40.66664 -0.83079 47.55612 9.58627 55.25171 24.72286 86.03891 0.21325 -7.22795 43.66155 0.91053 -62.36833 78.17871 -105.47746 43.7294 1.49568 94.1435 7.10272 -18.83132 -16.73196 -17.35827 -4.11766 -3.38892 130.40519 10.73427 40.6227 -126.12988 10.68119 -19.77885 -8.11236
0.06512 -0.56777 0.00983 -189.13707 6.2278 -1.06479 -18.15824 8.93177 -3.44858 4.39186 -40.78519 -0.83079 47.56288 9.58222 55.20033 24.66543 86.08416 0.10256 -7.22417 43.71395 0.93407 -62.36542 78.12749 -105.42327 43.68349 1.49414 94.11886 7.09963 -18.78488 -16.72506 -17.36157 -4.12399 -3.39358 130.40519 10.70961 40.6227 -126.11525 10.61648 -19.72439 -8.05408
0.06513 -0.56783 0.00984 -189.13036 6.24126 -1.08338 -18.15803 8.92675 -3.48936 4.52468 -40.92504 -0.83079 47.56795 9.57715 55.19598 24.68171 86.01369 -0.0051 -7.26675 43.76969 0.97182 -62.36269 78.10181 -105.31972 43.64196 1.49494 94.10651 7.10682 -18.72031 -16.71083 -17.37113 -4.13225 -3.39954 130.40519 10.68243 40.6227 -126.0991 10.60187 -19.68838 -8.021
0.06514 -0.56787 0.00986 -189.1216 6.26033 -1.10403 -18.1586 8.92295 -3.52176 4.64275 -41.05232 -0.83079 47.57339 9.57199 55.16996 24.66338 85.99982 -0.1089 -7.28494 43.82273 1.00029 -62.3601 78.06655 -105.24531 43.60055 1.49378 94.08927 7.10906 -18.66737 -16.7011 -17.37735 -4.13938 -3.40471 130.40519 10.65759 40.6227 -126.084 10.56407 -19.64431 -7.97721
0.06516 -0.56793 0.00988 -189.11089 6.28161 -1.12535 -18.16006 8.92169 -3.56014 4.76257 -41.19163 -0.83079 47.58122 9.56779 55.14822 24.64805 85.97333 -0.23408 -7.31582 43.88039 1.03987 -62.35662 78.02358 -105.14469 43.55015 1.49611 94.06921 7.11224 -18.60071 -16.68717 -17.38533 -4.14752 -3.41072 130.40519 10.62788 40.6227 -126.06739 10.52722 -19.59836 -7.92957
0.06517 -0.56797 0.00989 -189.10543 6.29515 -1.14415 -18.15912 8.91425 -3.58977 4.88571 -41.31097 -0.83079 47.58348 9.56186 55.1279 24.64459 85.94389 -0.3146 -7.33203 43.92937 1.06013 -62.35501 78.00216 -105.08568 43.5193 1.492 94.05784 7.11597 -18.55784 -16.67991 -17.39124 -4.15404 -3.4153 130.40519 10.60751 40.6227 -126.0536 10.50061 -19.56086 -7.89611
0.06515 -0.56798 0.00988 -189.11424 6.28957 -1.15639 -18.15106 8.88941 -3.59129 5.0151 -41.3704 -0.83079 47.56965 9.5517 55.09592 24.65634 85.93593 -0.26847 -7.29338 43.95352 1.02169 -62.35884 78.03703 -105.15933 43.54438 1.46746 94.06839 7.11906 -18.58831 -16.69339 -17.38998 -4.15549 -3.41552 130.40519 10.6153 40.6227 -126.04753 10.49003 -19.54263 -7.89669
0.06511 -0.56797 0.00987 -189.12792 6.27681 -1.16644 -18.14078 8.85875 -3.58356 5.1458 -41.40895 -0.83079 47.55038 9.53998 55.06406 24.67763 85.92814 -0.17829 -7.23909 43.96894 0.96373 -62.3645 78.09201 -105.27528 43.58842 1.43674 94.08706 7.12231 -18.6427 -16.71357 -17.38645 -4.15527 -3.41429 130.40519 10.63218 40.6227 -126.04444 10.48825 -19.5322 -7.91046
0.06508 -0.56798 0.00985 -189.13868 6.26799 -1.17788 -18.13204 8.83144 -3.58021 5.27276 -41.45682 -0.83079 47.53418 9.529 55.03431 24.69452 85.91883 -0.11098 -7.19407 43.98839 0.91606 -62.36913 78.1358 -105.36791 43.62187 1.41021 94.10146 7.12535 -18.68402 -16.7303 -17.38398 -4.15587 -3.41379 130.40519 10.64386 40.6227 -126.04028 10.48239 -19.51805 -7.91779
0.06505 -0.56798 0.00984 -189.15272 6.25591 -1.18723 -18.12091 8.80071 -3.57656 5.41427 -41.50619 -0.83079 47.51529 9.51784 54.99703 24.71429 85.91169 -0.03152 -7.14148 44.00751 0.86298 -62.3746 78.18942 -105.47612 43.66394 1.37796 94.11889 7.12944 -18.73409 -16.74872 -17.38162 -4.15623 -3.41302 130.40519 10.66028 40.6227 -126.03488 10.47813 -19.50548 -7.92842
0.06501 -0.56798 0.00982 -189.16087 6.249 -1.2008 -18.11434 8.77617 -3.57123 5.52516 -41.54716 -0.83079 47.50089 9.50667 54.97496 24.72929 85.90151 0.03308 -7.1004 44.02543 0.81622 -62.37877 78.22668 -105.56261 43.69236 1.35611 94.13161 7.13112 -18.77176 -16.76502 -17.37836 -4.15674 -3.41247 130.40519 10.66862 40.6227 -126.03278 10.47257 -19.49099 -7.93428
0.06495 -0.56798 0.00982 -189.15294 6.25891 -1.22372 -18.12012 8.76658 -3.56276 5.55279 -41.57007 -0.83079 47.49873 9.49624 54.99339 24.72931 85.88378 0.0456 -7.09433 44.04008 0.7927 -62.37882 78.21648 -105.5784 43.67984 1.36443 94.13074 7.12703 -18.7701 -16.77633 -17.37369 -4.1576 -3.41263 130.40519 10.65596 40.6227 -126.03892 10.45565 -19.47126 -7.92986
0.06489 -0.56797 0.00983 -189.13869 6.2742 -1.25141 -18.13069 8.764 -3.55296 5.54916 -41.58513 -0.83079 47.5015 9.48582 55.02709 24.72377 85.86338 0.04171 -7.10024 44.05413 0.77597 -62.37751 78.18861 -105.57115 43.65273 1.38337 94.1246 7.12033 -18.75511 -16.78492 -17.36808 -4.15874 -3.41309 130.40519 10.63432 40.6227 -126.04829 10.43777 -19.44893 -7.9191
0.06484 -0.56797 0.00983 -189.12637 6.28657 -1.27892 -18.13963 8.76071 -3.54419 5.55859 -41.60368 -0.83079 47.50302 9.47515 55.05455 24.72003 85.84418 0.04547 -7.10085 44.06991 0.75538 -62.37689 78.16684 -105.57492 43.63129 1.39753 94.11985 7.11413 -18.74581 -16.79306 -17.3625 -4.1601 -3.4136 130.40519 10.61432 40.6227 -126.05627 10.42391 -19.42633 -7.90684
0.06477 -0.56797 0.00984 -189.11803 6.30067 -1.29837 -18.14631 8.74721 -3.53337 5.57273 -41.62189 -0.83079 47.50035 9.46539 55.07928 24.71961 85.82498 0.04987 -7.10043 44.07951 0.7373 -62.37604 78.15347 -105.57787 43.61429 1.41147 94.11942 7.1107 -18.7388 -16.80825 -17.35843 -4.16003 -3.41331 130.40519 10.60446 40.62271 -126.06406 10.3958 -19.40991 -7.91275
0.06473 -0.56796 0.00983 -189.10006 6.31252 -1.33528 -18.15873 8.75617 -3.52656 5.56983 -41.63914 -0.83079 47.50744 9.45384 55.1131 24.71101 85.80517 0.04859 -7.10508 44.10163 0.71598 -62.3753 78.1187 -105.57648 43.5847 1.42823 94.10889 7.10103 -18.72367 -16.80838 -17.35111 -4.16294 -3.41473 130.40519 10.57182 40.62271 -126.07292 10.39636 -19.38022 -7.88013
0.06483 -0.56795 0.00974 -189.05484 6.31697 -1.42358 -18.18708 8.83011 -3.53171 5.52547 -41.65633 -0.83079 47.54211 9.43675 55.17004 24.67929 85.7843 0.03428 -7.12192 44.1614 0.68321 -62.37524 78.02414 -105.56893 43.5207 1.45247 94.06935 7.07332 -18.68834 -16.76464 -17.33416 -4.17468 -3.42117 130.40519 10.47343 40.62271 -126.08448 10.48198 -19.31163 -7.73397
0.06497 -0.56794 0.00964 -189.00051 6.31899 -1.52851 -18.22086 8.92559 -3.5409 5.46539 -41.67281 -0.83079 47.58612 9.41796 55.23523 24.63984 85.76292 0.01485 -7.14333 44.23334 0.6472 -62.37533 77.90946 -105.55762 43.44506 1.47884 94.02018 7.03966 -18.64545 -16.70634 -17.31413 -4.1893 -3.42927 130.40519 10.35331 40.62271 -126.0969 10.59544 -19.23025 -7.55073
0.06509 -0.56793 0.00954 -188.95176 6.32204 -1.62301 -18.25133 9.00814 -3.54793 5.41389 -41.68925 -0.83079 47.62466 9.40037 55.29554 24.60511 85.74178 -0.00156 -7.16198 44.29782 0.61331 -62.37526 77.8072 -105.54762 43.37678 1.50273 93.97696 7.00967 -18.60651 -16.65663 -17.29608 -4.20219 -3.43637 130.40519 10.24645 40.62271 -126.10855 10.69235 -19.15663 -7.39019
0.06522 -0.56792 0.00943 -188.89674 6.3255 -1.72976 -18.28544 9.10409 -3.55628 5.35536 -41.70685 -0.83079 47.66852 9.38103 55.36134 24.56506 85.72051 -0.02146 -7.18389 44.37031 0.57689 -62.37544 77.69059 -105.53829 43.29925 1.53321 93.92703 6.9756 -18.56468 -16.5986 -17.27554 -4.21687 -3.44449 130.40519 10.12508 40.62271 -126.12188 10.80553 -19.07483 -7.20506
0.06533 -0.56791 0.00935 -188.85264 6.32753 -1.81494 -18.3133 9.17727 -3.56286 5.30796 -41.72209 -0.83079 47.70349 9.36487 55.41726 24.53438 85.69943 -0.0351 -7.2 44.42914 0.54491 -62.37524 77.59919 -105.52726 43.23839 1.55053 93.88874 6.94857 -18.52757 -16.55436 -17.25946 -4.2285 -3.45088 130.40519 10.02876 40.62271 -126.13192 10.89166 -19.00691 -7.06203
0.06533 -0.56789 0.00933 -188.84131 6.32571 -1.83597 -18.32153 9.18116 -3.56355 5.29679 -41.72995 -0.83079 47.71116 9.35826 55.44561 24.53098 85.67893 -0.03003 -7.19822 44.44632 0.52576 -62.37352 77.5837 -105.50993 43.22693 1.52915 93.88607 6.94315 -18.50249 -16.55291 -17.25654 -4.23095 -3.45211 130.40519 10.00816 40.62271 -126.13242 10.8944 -18.98183 -7.04767
0.06531 -0.56787 0.00934 -188.84123 6.32258 -1.8348 -18.32343 9.16156 -3.56232 5.29723 -41.73567 -0.83079 47.70961 9.35483 55.4634 24.53739 85.65869 -0.01843 -7.1905 44.44965 0.51128 -62.37174 77.59414 -105.49158 43.2327 1.49471 93.89527 6.94494 -18.48296 -16.56566 -17.25822 -4.23025 -3.45155 130.40519 10.01334 40.6227 -126.12962 10.86927 -18.97093 -7.0764
0.0653 -0.56785 0.00933 -188.83574 6.32036 -1.84411 -18.3289 9.15343 -3.56201 5.29141 -41.74317 -0.83079 47.71257 9.34967 55.48475 24.53968 85.63837 -0.00982 -7.18592 44.45977 0.49467 -62.37001 77.59193 -105.47547 43.23021 1.46746 93.8983 6.94296 -18.4629 -16.57115 -17.25775 -4.23101 -3.45182 130.40519 10.00592 40.6227 -126.12851 10.85822 -18.9526 -7.0832
0.06528 -0.56783 0.00933 -188.83113 6.31678 -1.85234 -18.33171 9.14271 -3.56168 5.28911 -41.7474 -0.83079 47.71457 9.34563 55.51142 24.54035 85.61781 -0.00129 -7.17966 44.46763 0.47764 -62.36726 77.59264 -105.4518 43.22879 1.43512 93.90419 6.94278 -18.43437 -16.57946 -17.25741 -4.23174 -3.45207 130.40519 10.0014 40.6227 -126.12669 10.84236 -18.93787 -7.09844
0.06527 -0.56781 0.00933 -188.82753 6.3157 -1.85733 -18.33839 9.13153 -3.56083 5.28252 -41.75774 -0.83079 47.71621 9.34006 55.52465 24.54674 85.59787 0.009 -7.17541 44.47751 0.46306 -62.36776 77.5937 -105.44359 43.2298 1.41008 93.90717 6.94072 -18.42462 -16.58556 -17.25793 -4.23176 -3.45191 130.40519 9.99736 40.6227 -126.12548 10.82928 -18.91931 -7.107
0.06527 -0.56781 0.00932 -188.82373 6.32209 -1.85854 -18.35818 9.1246 -3.55944 5.26062 -41.78721 -0.83079 47.71951 9.32941 55.5009 24.56705 85.57911 0.02274 -7.17843 44.48923 0.45026 -62.36684 77.58947 -105.47934 43.2296 1.41009 93.89861 6.93112 -18.46811 -16.58133 -17.2598 -4.23059 -3.45098 130.40519 9.98764 40.6227 -126.12732 10.83273 -18.88577 -7.08561
0.06529 -0.56782 0.00932 -188.82069 6.33097 -1.85713 -18.38186 9.11786 -3.55748 5.23422 -41.82254 -0.83079 47.72262 9.31716 55.4643 24.59272 85.56104 0.03801 -7.1836 44.50433 0.44027 -62.37061 77.58482 -105.53054 43.23186 1.41761 93.88693 6.91954 -18.53004 -16.57465 -17.26237 -4.22879 -3.44968 130.40519 9.97785 40.6227 -126.1298 10.83943 -18.84819 -7.0566
0.06529 -0.56782 0.00931 -188.81745 6.33855 -1.85714 -18.4032 9.11116 -3.55553 5.21034 -41.85408 -0.83079 47.72556 9.30572 55.43529 24.61559 85.54298 0.05248 -7.18762 44.523 0.43177 -62.37974 77.58038 -105.57401 43.23566 1.42049 93.87708 6.90929 -18.58154 -16.56961 -17.26457 -4.2273 -3.44857 130.40519 9.96853 40.6227 -126.13161 10.84316 -18.81304 -7.03161
0.06531 -0.56783 0.00931 -188.8138 6.34684 -1.85578 -18.42691 9.10349 -3.55467 5.18476 -41.89046 -0.83079 47.7294 9.29399 55.39894 24.64027 85.52361 0.0676 -7.19227 44.5213 0.41261 -62.35939 77.57665 -105.6204 43.2294 1.42792 93.86573 6.89746 -18.64108 -16.56264 -17.26717 -4.22568 -3.44734 130.40519 9.95787 40.6227 -126.13485 10.8522 -18.77556 -7.0048
0.06531 -0.56783 0.00931 -188.81125 6.35418 -1.85648 -18.44648 9.09775 -3.5513 5.16164 -41.91797 -0.83079 47.73129 9.28248 55.37445 24.6624 85.50707 0.08168 -7.19608 44.56092 0.41522 -62.39887 77.57114 -105.66444 43.24376 1.42808 93.85684 6.88836 -18.68915 -16.55914 -17.26904 -4.22414 -3.44626 130.40519 9.95012 40.6227 -126.13538 10.85135 -18.7422 -6.98058
0.0653 -0.56781 0.00931 -188.80967 6.35906 -1.86752 -18.45537 9.10132 -3.54237 5.14531 -41.92137 -0.83079 47.72914 9.27171 55.39024 24.67547 85.49862 0.092 -7.19808 44.73207 0.48637 -62.62587 77.55958 -105.6977 43.3205 1.40414 93.85354 6.88721 -18.69238 -16.56392 -17.26884 -4.22361 -3.44619 130.40519 9.94618 40.6227 -126.12746 10.82235 -18.71755 -6.95504
0.06529 -0.56779 0.00932 -188.80942 6.36278 -1.88016 -18.45971 9.10629 -3.53078 5.13175 -41.91535 -0.83079 47.72487 9.26126 55.4177 24.68585 85.49292 0.10128 -7.19904 44.94164 0.57776 -62.90887 77.54634 -105.72813 43.41675 1.37307 93.85311 6.88887 -18.68471 -16.57251 -17.26785 -4.2231 -3.44623 130.40519 9.94573 40.6227 -126.11694 10.78348 -18.6977 -6.93385
